<svg xmlns="http://www.w3.org/2000/svg" viewBox="0 0 512 512">
  <defs>
    <linearGradient id="grad1" x1="0%" y1="0%" x2="100%" y2="100%">
      <stop offset="0%" style="stop-color:#0ea5e9;stop-opacity:1" />
      <stop offset="100%" style="stop-color:#2dd4bf;stop-opacity:1" />
    </linearGradient>
  </defs>
  <path d="M256 32L64 128v128c0 112 112 192 192 224 80-32 192-112 192-224V128L256 32z" fill="url(#grad1)" />
  <path d="M256 160c-10 0-18 8-18 18v156c0 10 8 18 18 18s18-8 18-18V178c0-10-8-18-18-18z" fill="#ffffff" opacity="0.8" />
  <path d="M196 220c-10 0-18 8-18 18v80c0 10 8 18 18 18s18-8 18-18v-80c0-10-8-18-18-18z" fill="#ffffff" opacity="0.6" />
  <path d="M316 220c-10 0-18 8-18 18v80c0 10 8 18 18 18s18-8 18-18v-80c0-10-8-18-18-18z" fill="#ffffff" opacity="0.6" />
</svg>
